<!-- Generated by IcoMoon.io -->
<svg version="1.1" xmlns="http://www.w3.org/2000/svg" width="24" height="32" viewBox="0 0 24 32">
<title>angles-down</title>
<path d="M13.412 29.412c-0.781 0.781-2.049 0.781-2.831 0l-10-10c-0.781-0.781-0.781-2.049 0-2.831s2.049-0.781 2.831 0l8.588 8.588 8.588-8.581c0.781-0.781 2.049-0.781 2.831 0s0.781 2.051 0 2.831l-10 10zM23.412 7.412l-10 10c-0.781 0.781-2.049 0.781-2.831 0l-10-10c-0.781-0.781-0.781-2.049 0-2.831s2.049-0.781 2.831 0l8.588 8.588 8.588-8.581c0.781-0.781 2.049-0.781 2.831 0s0.781 2.049 0 2.831z"></path>
</svg>
