<!-- Generated by IcoMoon.io -->
<svg version="1.1" xmlns="http://www.w3.org/2000/svg" width="32" height="32" viewBox="0 0 32 32">
<title>arrow-curved</title>
<path d="M5.333 20v-8.667c0-1.591 0.632-3.117 1.757-4.243s2.651-1.757 4.243-1.757c1.591 0 3.117 0.632 4.243 1.757s1.757 2.651 1.757 4.243v9.333c0 0.884 0.351 1.732 0.976 2.357s1.473 0.976 2.357 0.976 1.732-0.351 2.357-0.976c0.625-0.625 0.976-1.473 0.976-2.357v-8.893c-0.891-0.315-1.64-0.933-2.117-1.748s-0.652-1.771-0.493-2.701 0.643-1.775 1.365-2.383c0.723-0.608 1.635-0.943 2.579-0.943s1.857 0.333 2.579 0.943c0.721 0.608 1.205 1.452 1.365 2.383s-0.015 1.887-0.493 2.701c-0.479 0.815-1.228 1.433-2.117 1.748v8.893c0 1.591-0.632 3.117-1.757 4.243s-2.651 1.757-4.243 1.757c-1.591 0-3.117-0.632-4.243-1.757s-1.757-2.651-1.757-4.243v-9.333c0-0.884-0.351-1.732-0.976-2.357s-1.473-0.976-2.357-0.976-1.732 0.351-2.357 0.976c-0.625 0.625-0.976 1.473-0.976 2.357v8.667h4l-5.333 6.667-5.333-6.667h4zM25.333 9.333c0.353 0 0.693-0.14 0.943-0.391s0.391-0.589 0.391-0.943c0-0.353-0.141-0.693-0.391-0.943s-0.589-0.391-0.943-0.391c-0.353 0-0.693 0.14-0.943 0.391s-0.391 0.589-0.391 0.943c0 0.353 0.141 0.693 0.391 0.943s0.589 0.391 0.943 0.391z"></path>
</svg>
