<!-- Generated by IcoMoon.io -->
<svg version="1.1" xmlns="http://www.w3.org/2000/svg" width="32" height="32" viewBox="0 0 32 32">
<title>point</title>
<path d="M16 0c4.319 0 8.17 2.007 10.67 5.14-2.5 3.133-6.35 5.14-10.67 5.14s-8.17-2.007-10.67-5.14c2.5-3.133 6.35-5.14 10.67-5.14zM10.28 16c0 4.319-2.007 8.17-5.14 10.67-3.133-2.5-5.14-6.35-5.14-10.67s2.007-8.17 5.14-10.67c3.133 2.5 5.14 6.35 5.14 10.67zM32 16c0 4.319-2.007 8.17-5.14 10.67-3.133-2.5-5.14-6.35-5.14-10.67s2.007-8.17 5.14-10.67c3.133 2.5 5.14 6.35 5.14 10.67zM26.67 26.86c-2.5-3.133-6.35-5.14-10.67-5.14s-8.17 2.007-10.67 5.14c2.5 3.133 6.35 5.14 10.67 5.14s8.17-2.007 10.67-5.14z"></path>
</svg>
