<!-- Generated by IcoMoon.io -->
<svg version="1.1" xmlns="http://www.w3.org/2000/svg" width="32" height="32" viewBox="0 0 32 32">
<title>purse</title>
<path d="M24 9.333h4c0.353 0 0.693 0.14 0.943 0.391s0.391 0.589 0.391 0.943v16c0 0.353-0.141 0.693-0.391 0.943s-0.589 0.391-0.943 0.391h-24c-0.355 0-0.693-0.141-0.943-0.391s-0.391-0.589-0.391-0.943v-21.333c0-0.355 0.14-0.693 0.391-0.943s0.589-0.391 0.943-0.391h20v5.333zM5.333 12v13.333h21.333v-13.333h-21.333zM5.333 6.667v2.667h16v-2.667h-16zM20 17.333h4v2.667h-4v-2.667z"></path>
</svg>
