<!-- Generated by IcoMoon.io -->
<svg version="1.1" xmlns="http://www.w3.org/2000/svg" width="32" height="32" viewBox="0 0 32 32">
<title>twitter</title>
<path d="M29.549 7.541c-1.019 0.451-2.097 0.747-3.203 0.877 1.165-0.697 2.037-1.793 2.453-3.085-1.093 0.651-2.292 1.107-3.541 1.353-0.839-0.897-1.952-1.493-3.164-1.695s-2.457 0.005-3.541 0.585c-1.084 0.58-1.945 1.503-2.451 2.623s-0.627 2.376-0.345 3.572c-2.217-0.111-4.387-0.687-6.365-1.691s-3.727-2.413-5.127-4.136c-0.496 0.851-0.756 1.819-0.755 2.804 0 1.933 0.984 3.641 2.48 4.641-0.885-0.028-1.751-0.267-2.525-0.697v0.069c0 1.288 0.447 2.535 1.261 3.532s1.951 1.681 3.212 1.936c-0.823 0.223-1.684 0.256-2.52 0.096 0.356 1.108 1.049 2.079 1.983 2.772s2.061 1.080 3.225 1.101c-1.157 0.909-2.481 1.58-3.897 1.976s-2.897 0.509-4.357 0.333c2.549 1.639 5.516 2.509 8.547 2.507 10.257 0 15.867-8.497 15.867-15.867 0-0.24-0.007-0.483-0.017-0.72 1.092-0.789 2.035-1.767 2.783-2.887l-0.001-0.001z"></path>
</svg>
