<svg aria-hidden="true" style="position: absolute; width: 0; height: 0; overflow: hidden;" version="1.1" xmlns="http://www.w3.org/2000/svg" xmlns:xlink="http://www.w3.org/1999/xlink">
<defs>
<symbol id="icon-point" viewBox="0 0 32 32">
<path d="M16 0c4.319 0 8.17 2.007 10.67 5.14-2.5 3.133-6.35 5.14-10.67 5.14s-8.17-2.007-10.67-5.14c2.5-3.133 6.35-5.14 10.67-5.14zM10.28 16c0 4.319-2.007 8.17-5.14 10.67-3.133-2.5-5.14-6.35-5.14-10.67s2.007-8.17 5.14-10.67c3.133 2.5 5.14 6.35 5.14 10.67zM32 16c0 4.319-2.007 8.17-5.14 10.67-3.133-2.5-5.14-6.35-5.14-10.67s2.007-8.17 5.14-10.67c3.133 2.5 5.14 6.35 5.14 10.67zM26.67 26.86c-2.5-3.133-6.35-5.14-10.67-5.14s-8.17 2.007-10.67 5.14c2.5 3.133 6.35 5.14 10.67 5.14s8.17-2.007 10.67-5.14z"></path>
</symbol>
<symbol id="icon-angles-down" viewBox="0 0 24 32">
<path d="M13.412 29.412c-0.781 0.781-2.049 0.781-2.831 0l-10-10c-0.781-0.781-0.781-2.049 0-2.831s2.049-0.781 2.831 0l8.588 8.588 8.588-8.581c0.781-0.781 2.049-0.781 2.831 0s0.781 2.051 0 2.831l-10 10zM23.412 7.412l-10 10c-0.781 0.781-2.049 0.781-2.831 0l-10-10c-0.781-0.781-0.781-2.049 0-2.831s2.049-0.781 2.831 0l8.588 8.588 8.588-8.581c0.781-0.781 2.049-0.781 2.831 0s0.781 2.049 0 2.831z"></path>
</symbol>
<symbol id="icon-arrow-bottom" viewBox="0 0 32 32">
<path d="M21.339 19.448l-11.476-11.476-1.885 1.885 11.475 11.476h-10.113v2.667h14.667v-14.667h-2.667v10.115z"></path>
</symbol>
<symbol id="icon-arrow-curved" viewBox="0 0 32 32">
<path d="M5.333 20v-8.667c0-1.591 0.632-3.117 1.757-4.243s2.651-1.757 4.243-1.757c1.591 0 3.117 0.632 4.243 1.757s1.757 2.651 1.757 4.243v9.333c0 0.884 0.351 1.732 0.976 2.357s1.473 0.976 2.357 0.976 1.732-0.351 2.357-0.976c0.625-0.625 0.976-1.473 0.976-2.357v-8.893c-0.891-0.315-1.64-0.933-2.117-1.748s-0.652-1.771-0.493-2.701 0.643-1.775 1.365-2.383c0.723-0.608 1.635-0.943 2.579-0.943s1.857 0.333 2.579 0.943c0.721 0.608 1.205 1.452 1.365 2.383s-0.015 1.887-0.493 2.701c-0.479 0.815-1.228 1.433-2.117 1.748v8.893c0 1.591-0.632 3.117-1.757 4.243s-2.651 1.757-4.243 1.757c-1.591 0-3.117-0.632-4.243-1.757s-1.757-2.651-1.757-4.243v-9.333c0-0.884-0.351-1.732-0.976-2.357s-1.473-0.976-2.357-0.976-1.732 0.351-2.357 0.976c-0.625 0.625-0.976 1.473-0.976 2.357v8.667h4l-5.333 6.667-5.333-6.667h4zM25.333 9.333c0.353 0 0.693-0.14 0.943-0.391s0.391-0.589 0.391-0.943c0-0.353-0.141-0.693-0.391-0.943s-0.589-0.391-0.943-0.391c-0.353 0-0.693 0.14-0.943 0.391s-0.391 0.589-0.391 0.943c0 0.353 0.141 0.693 0.391 0.943s0.589 0.391 0.943 0.391z"></path>
</symbol>
<symbol id="icon-arrow-right" viewBox="0 0 28 32">
<path d="M27.413 17.413c0.781-0.781 0.781-2.050 0-2.831l-10-10c-0.781-0.781-2.050-0.781-2.831 0s-0.781 2.050 0 2.831l6.594 6.587h-19.175c-1.106 0-2 0.894-2 2s0.894 2 2 2h19.169l-6.581 6.587c-0.781 0.781-0.781 2.050 0 2.831s2.050 0.781 2.831 0l10-10z"></path>
</symbol>
<symbol id="icon-button" viewBox="0 0 35 32">
<path d="M16.279 30.927c0.007-0.127 0.037-0.251 0.091-0.365s0.131-0.217 0.225-0.303c0.093-0.085 0.204-0.149 0.324-0.192s0.245-0.060 0.373-0.053c0.127 0.007 0.251 0.039 0.365 0.095s0.216 0.133 0.3 0.228 0.148 0.205 0.189 0.325c0.041 0.12 0.057 0.247 0.049 0.373-0.017 0.251-0.133 0.487-0.321 0.653s-0.437 0.252-0.689 0.237c-0.252-0.015-0.488-0.127-0.657-0.315s-0.259-0.433-0.245-0.685zM8.428 29.891c0.109-0.167 0.281-0.283 0.477-0.324s0.4-0.003 0.567 0.108 0.284 0.281 0.324 0.476c0.041 0.195 0.003 0.399-0.108 0.565-0.053 0.083-0.124 0.155-0.205 0.209s-0.173 0.095-0.271 0.115c-0.097 0.020-0.197 0.021-0.295 0.003s-0.189-0.056-0.273-0.109-0.155-0.124-0.211-0.205c-0.056-0.083-0.095-0.175-0.115-0.271s-0.021-0.197-0.003-0.295c0.019-0.097 0.056-0.189 0.109-0.272v0zM25.268 29.596c0.088-0.045 0.185-0.071 0.283-0.079s0.199 0.005 0.292 0.036c0.093 0.031 0.181 0.080 0.256 0.145s0.136 0.143 0.181 0.232c0.067 0.133 0.093 0.283 0.075 0.431s-0.080 0.287-0.177 0.4c-0.097 0.113-0.225 0.193-0.369 0.233s-0.296 0.036-0.437-0.011c-0.143-0.047-0.267-0.135-0.359-0.251s-0.147-0.259-0.157-0.408c-0.011-0.148 0.021-0.297 0.096-0.427s0.184-0.235 0.317-0.301zM10.248 25.907c0.169-0.259 0.433-0.437 0.736-0.501s0.617-0.004 0.875 0.165c0.259 0.169 0.439 0.435 0.503 0.735s0.004 0.616-0.165 0.873c-0.171 0.256-0.433 0.433-0.736 0.496s-0.615 0.001-0.871-0.167c-0.257-0.168-0.437-0.431-0.501-0.732s-0.007-0.613 0.161-0.871zM22.904 25.477c0.136-0.069 0.285-0.111 0.437-0.123s0.307 0.007 0.451 0.053c0.145 0.047 0.28 0.123 0.396 0.223s0.212 0.22 0.281 0.357c0.104 0.204 0.145 0.433 0.12 0.661s-0.117 0.441-0.267 0.617c-0.147 0.175-0.343 0.303-0.563 0.368s-0.453 0.063-0.672-0.004c-0.219-0.067-0.413-0.197-0.559-0.373s-0.235-0.392-0.259-0.62c-0.023-0.227 0.021-0.457 0.128-0.659s0.271-0.369 0.471-0.479l0.033-0.017zM15.985 24.768c0.119-0.244 0.307-0.447 0.541-0.583s0.504-0.201 0.775-0.184c0.753 0.045 1.328 0.691 1.284 1.443-0.011 0.203-0.068 0.399-0.165 0.577s-0.232 0.332-0.396 0.451c-0.164 0.119-0.352 0.201-0.551 0.237s-0.404 0.031-0.6-0.020c-0.196-0.051-0.379-0.145-0.533-0.275s-0.28-0.293-0.365-0.477c-0.085-0.184-0.128-0.384-0.125-0.587s0.049-0.403 0.137-0.584zM3.869 22.649c0.227-0.113 0.488-0.131 0.728-0.052s0.439 0.251 0.553 0.475 0.135 0.487 0.057 0.727c-0.077 0.24-0.247 0.441-0.471 0.557s-0.485 0.139-0.727 0.064c-0.241-0.075-0.443-0.243-0.561-0.467s-0.144-0.484-0.069-0.725 0.239-0.445 0.463-0.565l0.029-0.015zM29.532 22.923c0.068-0.107 0.157-0.197 0.261-0.269s0.223-0.123 0.347-0.149c0.124-0.027 0.252-0.028 0.376-0.005s0.243 0.071 0.349 0.14c0.107 0.069 0.197 0.159 0.268 0.264s0.121 0.223 0.147 0.347c0.025 0.124 0.027 0.252 0.001 0.376s-0.073 0.243-0.144 0.347c-0.141 0.209-0.357 0.355-0.605 0.405s-0.505 0.001-0.716-0.139c-0.211-0.139-0.359-0.353-0.412-0.601s-0.007-0.504 0.131-0.717zM13.459 18.676c0.456-0.245 0.981-0.333 1.493-0.247s0.979 0.34 1.331 0.721c0.351 0.381 0.564 0.869 0.605 1.385s-0.089 1.032-0.373 1.465c-0.211 0.324-0.501 0.589-0.841 0.775s-0.721 0.279-1.109 0.279c-0.519 0-1.023-0.175-1.431-0.492s-0.7-0.764-0.827-1.267-0.083-1.032 0.127-1.507c0.209-0.473 0.571-0.865 1.025-1.111zM19.345 18.501c0.529-0.171 1.101-0.147 1.613 0.068s0.931 0.604 1.181 1.099c0.575 1.147 0.113 2.541-1.031 3.121-0.325 0.165-0.684 0.252-1.049 0.255-0.555 0-1.092-0.197-1.515-0.559s-0.701-0.86-0.787-1.408c-0.085-0.548 0.027-1.109 0.319-1.581s0.741-0.825 1.271-0.995zM8.127 19.793c0.132-0.153 0.297-0.276 0.481-0.359s0.385-0.121 0.589-0.117c0.203 0.005 0.401 0.053 0.583 0.145s0.34 0.221 0.464 0.38c0.125 0.159 0.213 0.345 0.257 0.543s0.045 0.403 0 0.6c-0.044 0.197-0.132 0.383-0.256 0.541s-0.283 0.291-0.464 0.381c-0.283 0.143-0.607 0.183-0.916 0.113s-0.585-0.243-0.78-0.493c-0.195-0.249-0.299-0.559-0.291-0.875s0.125-0.62 0.331-0.86zM24.313 19.899c0.415-0.632 1.264-0.808 1.897-0.393 0.631 0.416 0.807 1.263 0.393 1.895s-1.264 0.808-1.897 0.393-0.809-1.263-0.393-1.895zM9.476 15.851c0.073-1.267 1.145-2.24 2.413-2.192s2.264 1.101 2.241 2.368c-0.023 1.253-1.035 2.26-2.284 2.284h-0.169c-1.272-0.075-2.247-1.153-2.197-2.42l0.003-0.043-0.007 0.001zM20.467 15.825c0.075-1.283 1.175-2.264 2.46-2.189 0.305 0.016 0.604 0.092 0.88 0.224s0.523 0.319 0.724 0.545c0.297 0.332 0.492 0.741 0.563 1.181s0.013 0.891-0.164 1.299c-0.179 0.408-0.469 0.757-0.839 1.004s-0.803 0.384-1.249 0.395l-0.047 0.001h-0.135c-1.285-0.075-2.267-1.173-2.193-2.457v0zM3.932 15.931c0.019-0.308 0.157-0.596 0.387-0.801s0.533-0.311 0.841-0.293c0.308 0.019 0.597 0.157 0.801 0.387s0.311 0.532 0.293 0.84c-0.017 0.308-0.157 0.596-0.387 0.801s-0.533 0.311-0.841 0.293c-0.308-0.019-0.597-0.157-0.803-0.387s-0.311-0.532-0.293-0.84zM28.348 15.879c0.019-0.307 0.159-0.593 0.389-0.797s0.531-0.309 0.837-0.291c0.307 0.017 0.595 0.156 0.8 0.384s0.312 0.529 0.296 0.836c-0.019 0.308-0.157 0.596-0.387 0.801s-0.533 0.311-0.841 0.293c-0.308-0.019-0.596-0.157-0.801-0.387s-0.311-0.532-0.293-0.84v0zM0.767 15.259l0.028 0.001c0.099 0.005 0.196 0.029 0.285 0.073s0.169 0.103 0.235 0.177c0.067 0.073 0.117 0.16 0.149 0.253s0.045 0.192 0.040 0.291c-0.008 0.147-0.060 0.289-0.148 0.407s-0.209 0.208-0.348 0.257c-0.139 0.051-0.289 0.059-0.433 0.023s-0.273-0.111-0.373-0.219c-0.1-0.108-0.167-0.243-0.191-0.389s-0.005-0.295 0.056-0.429 0.159-0.248 0.283-0.327c0.125-0.079 0.271-0.12 0.417-0.117zM33.863 15.181l0.031 0.001c0.199 0.012 0.387 0.103 0.519 0.251s0.201 0.344 0.189 0.544c-0.009 0.147-0.060 0.289-0.149 0.407s-0.211 0.208-0.349 0.259c-0.139 0.051-0.291 0.057-0.433 0.023s-0.275-0.111-0.375-0.219c-0.101-0.108-0.167-0.243-0.191-0.389s-0.005-0.295 0.055-0.429c0.060-0.135 0.159-0.249 0.283-0.328s0.271-0.12 0.417-0.119zM14.544 8.901c0.431-0.003 0.853 0.116 1.221 0.34s0.665 0.547 0.861 0.931c0.18 0.355 0.267 0.751 0.249 1.148s-0.135 0.784-0.343 1.123c-0.209 0.339-0.501 0.619-0.849 0.813s-0.739 0.296-1.139 0.296c-0.432 0.001-0.856-0.117-1.224-0.344s-0.665-0.551-0.859-0.936c-0.179-0.355-0.263-0.749-0.245-1.145s0.136-0.781 0.344-1.119c0.208-0.337 0.5-0.617 0.845-0.809s0.737-0.296 1.135-0.296zM20.039 8.885c0.519 0.001 1.021 0.173 1.431 0.493s0.699 0.764 0.825 1.267c0.127 0.503 0.081 1.032-0.127 1.507s-0.569 0.865-1.025 1.109-0.981 0.333-1.493 0.247c-0.511-0.087-0.979-0.34-1.331-0.721s-0.564-0.869-0.607-1.385c-0.043-0.516 0.089-1.031 0.373-1.464 0.212-0.323 0.501-0.589 0.843-0.772s0.723-0.28 1.109-0.279zM7.999 10.539c0.415-0.632 1.264-0.808 1.897-0.393s0.809 1.263 0.395 1.893c-0.415 0.632-1.264 0.808-1.897 0.395-0.151-0.099-0.28-0.227-0.383-0.373s-0.172-0.316-0.209-0.492c-0.037-0.176-0.039-0.357-0.005-0.535s0.103-0.345 0.201-0.495zM24.824 10.032c0.161-0.081 0.336-0.131 0.515-0.143s0.36 0.009 0.531 0.065c0.171 0.056 0.329 0.147 0.465 0.263s0.248 0.261 0.329 0.421c0.34 0.675 0.068 1.497-0.607 1.839s-1.499 0.068-1.84-0.607c-0.34-0.675-0.068-1.497 0.607-1.839v0zM3.468 7.968c0.139-0.212 0.357-0.361 0.607-0.412 0.123-0.025 0.251-0.027 0.373-0.003s0.243 0.071 0.347 0.14c0.105 0.069 0.196 0.159 0.267 0.263s0.12 0.221 0.145 0.344c0.025 0.123 0.027 0.251 0.003 0.373s-0.071 0.241-0.14 0.347c-0.139 0.212-0.357 0.361-0.607 0.412s-0.508 0.003-0.721-0.137c-0.213-0.139-0.361-0.357-0.413-0.607s-0.003-0.508 0.137-0.72zM29.869 7.58c0.227-0.111 0.488-0.128 0.727-0.048s0.437 0.252 0.551 0.477 0.135 0.487 0.056 0.725c-0.077 0.24-0.247 0.439-0.471 0.555-0.227 0.115-0.491 0.135-0.732 0.055s-0.443-0.252-0.556-0.479c-0.115-0.227-0.135-0.491-0.055-0.731s0.252-0.441 0.479-0.555v0zM15.912 6.495c0.043-0.755 0.689-1.331 1.445-1.288s1.332 0.689 1.291 1.443c-0.043 0.753-0.689 1.331-1.444 1.289s-1.335-0.691-1.291-1.445zM10.651 4.387c0.136-0.069 0.285-0.111 0.439-0.121s0.305 0.007 0.451 0.055c0.145 0.048 0.279 0.124 0.395 0.223s0.211 0.221 0.279 0.357c0.069 0.136 0.109 0.285 0.121 0.437s-0.008 0.305-0.055 0.451c-0.048 0.145-0.124 0.279-0.224 0.395s-0.221 0.211-0.359 0.279c-0.276 0.139-0.595 0.161-0.888 0.065s-0.536-0.305-0.675-0.581c-0.139-0.275-0.163-0.595-0.067-0.887s0.305-0.535 0.581-0.675zM22.405 4.759c0.127-0.193 0.307-0.343 0.519-0.435s0.447-0.116 0.672-0.073c0.225 0.043 0.435 0.151 0.6 0.312s0.279 0.367 0.325 0.592c0.047 0.225 0.027 0.459-0.059 0.673s-0.233 0.397-0.423 0.527c-0.189 0.131-0.415 0.201-0.645 0.203s-0.456-0.063-0.649-0.189c-0.128-0.083-0.239-0.191-0.325-0.317s-0.147-0.268-0.179-0.419c-0.031-0.149-0.033-0.304-0.005-0.453s0.087-0.293 0.171-0.421zM8.651 1.003c0.179-0.089 0.384-0.104 0.573-0.043s0.347 0.196 0.436 0.375 0.107 0.383 0.045 0.572c-0.061 0.189-0.195 0.347-0.371 0.439-0.089 0.045-0.185 0.073-0.285 0.080s-0.199-0.004-0.295-0.035c-0.095-0.031-0.181-0.080-0.259-0.145s-0.137-0.144-0.181-0.233c-0.089-0.177-0.104-0.384-0.041-0.573s0.199-0.345 0.376-0.435zM24.915 1.223c0.053-0.083 0.124-0.153 0.205-0.209s0.175-0.095 0.271-0.115c0.097-0.020 0.197-0.021 0.295-0.003s0.191 0.056 0.273 0.111c0.083 0.053 0.155 0.124 0.209 0.205s0.095 0.173 0.115 0.271c0.020 0.097 0.021 0.197 0.003 0.293s-0.056 0.191-0.109 0.272c-0.109 0.167-0.281 0.284-0.476 0.325s-0.4 0.003-0.567-0.107c-0.167-0.109-0.284-0.28-0.325-0.476s-0.003-0.399 0.107-0.565v0zM16.951 0.055c0.119-0.043 0.245-0.063 0.373-0.057s0.251 0.037 0.365 0.091 0.217 0.131 0.301 0.225c0.085 0.095 0.151 0.205 0.192 0.324s0.060 0.247 0.052 0.373c-0.008 0.127-0.040 0.251-0.096 0.364s-0.135 0.216-0.229 0.299-0.207 0.147-0.327 0.188c-0.239 0.080-0.5 0.063-0.725-0.048s-0.4-0.307-0.483-0.544c-0.083-0.237-0.069-0.497 0.039-0.725s0.301-0.403 0.539-0.489z"></path>
</symbol>
<symbol id="icon-discord" viewBox="0 0 32 32">
<path d="M13.435 14.667c0.8 0 1.448 0.6 1.433 1.333 0 0.733-0.632 1.333-1.433 1.333-0.787 0-1.435-0.6-1.435-1.333s0.633-1.333 1.435-1.333zM18.565 14.667c0.801 0 1.435 0.6 1.435 1.333s-0.633 1.333-1.435 1.333c-0.787 0-1.433-0.6-1.433-1.333s0.632-1.333 1.433-1.333zM25.188 2.667c1.551 0 2.812 1.288 2.812 2.884v25.116l-2.948-2.66-1.66-1.568-1.756-1.667 0.728 2.591h-15.552c-1.551 0-2.812-1.288-2.812-2.884v-18.928c0-1.596 1.261-2.884 2.812-2.884h18.376zM19.895 20.951c3.031-0.097 4.197-2.128 4.197-2.128 0-4.508-1.976-8.163-1.976-8.163-1.973-1.511-3.853-1.469-3.853-1.469l-0.192 0.224c2.332 0.728 3.415 1.779 3.415 1.779-1.273-0.717-2.677-1.173-4.128-1.344-0.921-0.104-1.851-0.095-2.769 0.027-0.083 0-0.152 0.015-0.233 0.028-0.48 0.043-1.647 0.224-3.113 0.883-0.507 0.237-0.809 0.407-0.809 0.407s1.139-1.107 3.607-1.835l-0.137-0.168c0 0-1.879-0.041-3.853 1.471 0 0-1.975 3.653-1.975 8.161 0 0 1.152 2.029 4.183 2.128 0 0 0.507-0.629 0.92-1.161-1.743-0.533-2.4-1.653-2.4-1.653s0.136 0.099 0.383 0.239c0.013 0.013 0.027 0.028 0.055 0.041 0.041 0.029 0.083 0.043 0.124 0.071 0.343 0.196 0.685 0.349 1 0.476 0.563 0.224 1.235 0.448 2.017 0.603 1.172 0.229 2.379 0.233 3.552 0.013 0.684-0.121 1.351-0.324 1.988-0.601 0.48-0.183 1.015-0.449 1.577-0.827 0 0-0.685 1.148-2.483 1.667 0.412 0.532 0.907 1.133 0.907 1.133h-0.001z"></path>
</symbol>
<symbol id="icon-instagram" viewBox="0 0 32 32">
<path d="M16 2.667c3.623 0 4.075 0.013 5.496 0.080s2.387 0.289 3.237 0.62c0.88 0.339 1.621 0.797 2.363 1.537 0.679 0.667 1.203 1.473 1.537 2.363 0.329 0.849 0.553 1.817 0.62 3.237 0.063 1.421 0.080 1.873 0.080 5.496s-0.013 4.075-0.080 5.496c-0.067 1.42-0.291 2.387-0.62 3.237-0.333 0.891-0.859 1.697-1.537 2.363-0.667 0.679-1.473 1.201-2.363 1.537-0.849 0.329-1.817 0.553-3.237 0.62-1.421 0.063-1.873 0.080-5.496 0.080s-4.075-0.013-5.496-0.080c-1.42-0.067-2.387-0.291-3.237-0.62-0.889-0.333-1.697-0.859-2.363-1.537-0.677-0.667-1.203-1.473-1.537-2.363-0.331-0.849-0.553-1.817-0.62-3.237-0.063-1.421-0.080-1.873-0.080-5.496s0.013-4.075 0.080-5.496c0.067-1.421 0.289-2.387 0.62-3.237 0.335-0.889 0.857-1.697 1.537-2.363 0.667-0.677 1.473-1.203 2.363-1.537 0.851-0.331 1.816-0.553 3.237-0.62 1.421-0.063 1.873-0.080 5.496-0.080zM16 9.333c-1.768 0-3.464 0.701-4.715 1.953s-1.953 2.947-1.953 4.715c0 1.768 0.701 3.464 1.953 4.713s2.947 1.953 4.715 1.953 3.464-0.703 4.713-1.953c1.251-1.251 1.953-2.947 1.953-4.715s-0.703-3.464-1.953-4.715c-1.251-1.249-2.947-1.953-4.715-1.953zM24.667 9c0-0.443-0.176-0.865-0.488-1.177s-0.737-0.488-1.179-0.488c-0.443 0-0.865 0.176-1.179 0.488s-0.488 0.736-0.488 1.179c0 0.443 0.176 0.865 0.488 1.179s0.737 0.488 1.179 0.488c0.441 0 0.865-0.176 1.179-0.488s0.488-0.736 0.488-1.179zM16 12c1.061 0 2.077 0.421 2.828 1.172s1.172 1.768 1.172 2.828c0 1.061-0.421 2.077-1.172 2.828s-1.768 1.172-2.828 1.172c-1.061 0-2.077-0.421-2.828-1.172s-1.172-1.768-1.172-2.828c0-1.061 0.421-2.077 1.172-2.828s1.768-1.172 2.828-1.172z"></path>
</symbol>
<symbol id="icon-purse" viewBox="0 0 32 32">
<path d="M24 9.333h4c0.353 0 0.693 0.14 0.943 0.391s0.391 0.589 0.391 0.943v16c0 0.353-0.141 0.693-0.391 0.943s-0.589 0.391-0.943 0.391h-24c-0.355 0-0.693-0.141-0.943-0.391s-0.391-0.589-0.391-0.943v-21.333c0-0.355 0.14-0.693 0.391-0.943s0.589-0.391 0.943-0.391h20v5.333zM5.333 12v13.333h21.333v-13.333h-21.333zM5.333 6.667v2.667h16v-2.667h-16zM20 17.333h4v2.667h-4v-2.667z"></path>
</symbol>
<symbol id="icon-tiktok" viewBox="0 0 32 32">
<path d="M22.133 7.76c0 0 0.68 0.667 0 0-0.911-1.040-1.415-2.377-1.413-3.76h-4.12v16.533c-0.032 0.895-0.409 1.741-1.055 2.364s-1.504 0.969-2.4 0.969c-1.893 0-3.467-1.547-3.467-3.467 0-2.293 2.213-4.013 4.493-3.307v-4.213c-4.6-0.613-8.627 2.96-8.627 7.52 0 4.44 3.68 7.6 7.587 7.6 4.187 0 7.587-3.4 7.587-7.6v-8.387c1.671 1.2 3.677 1.843 5.733 1.84v-4.12c0 0-2.507 0.12-4.32-1.973z"></path>
</symbol>
<symbol id="icon-twitter" viewBox="0 0 32 32">
<path d="M29.549 7.541c-1.019 0.451-2.097 0.747-3.203 0.877 1.165-0.697 2.037-1.793 2.453-3.085-1.093 0.651-2.292 1.107-3.541 1.353-0.839-0.897-1.952-1.493-3.164-1.695s-2.457 0.005-3.541 0.585c-1.084 0.58-1.945 1.503-2.451 2.623s-0.627 2.376-0.345 3.572c-2.217-0.111-4.387-0.687-6.365-1.691s-3.727-2.413-5.127-4.136c-0.496 0.851-0.756 1.819-0.755 2.804 0 1.933 0.984 3.641 2.48 4.641-0.885-0.028-1.751-0.267-2.525-0.697v0.069c0 1.288 0.447 2.535 1.261 3.532s1.951 1.681 3.212 1.936c-0.823 0.223-1.684 0.256-2.52 0.096 0.356 1.108 1.049 2.079 1.983 2.772s2.061 1.080 3.225 1.101c-1.157 0.909-2.481 1.58-3.897 1.976s-2.897 0.509-4.357 0.333c2.549 1.639 5.516 2.509 8.547 2.507 10.257 0 15.867-8.497 15.867-15.867 0-0.24-0.007-0.483-0.017-0.72 1.092-0.789 2.035-1.767 2.783-2.887l-0.001-0.001z"></path>
</symbol>
</defs>
</svg>
